<svg viewBox="0 0 1505.5 290.16" xmlns="http://www.w3.org/2000/svg"><path d="m1315.9 148.73c3.51 6.88 8.78 11.23 15 14.33 11.87 5.88 23 2.9 33.45-3.79a90.54 90.54 0 0 0 15-12.32c2.38-2.38 4-4.82 4.37-8.55 1.52-16.88 6.34-33.15 9.9-49.65 4.42-20.44 8.93-40.85 11.91-61.58 1.2-8.34 3.67-16.5 5.68-24.71.6-2.44 2.27-3.18 4.5-1.69 5.33 3.57 8.93 8.37 10 14.78 2 11.43 3.31 22.91 2 34.55a69 69 0 0 0 0 7.21c15.85-7.63 27.85.25 39.76 9.24a123.4 123.4 0 0 1 28 29.88c12.16 18 14.15 37.5.27 55.9s-32.2 31.26-53.49 40c-6.4 2.63-12 1.21-17.45-2.17a44.8 44.8 0 0 1 -20-25.53c-.63-2 1.08-4.22-1.08-6-2.56 1.39-2.82 4.35-4 6.56s-2.36 4-5 4.25c-2.86.28-4.62-1.54-6.07-3.64-1.11-1.6-1.65-3.64-3.87-5-5.76 6.15-12.24 11.39-20.07 14.7-12.08 5.12-23.5 5.15-36-.59-13.4-6.17-20.79-16.13-25.81-29.11-1.43-3.71-4.31-6.87-6.57-10.24-2-2.9-2.07-6.11.68-8 3.9-2.74 4.45-6.75 5.44-10.67 3.88-15.23 10.22-29.08 22.51-39.44a38.67 38.67 0 0 1 14.33-7.86c3.51-1 7 1.35 9.88 3.71 7.1 5.78 9.19 13.9 10.5 22.39 2.45 15.81-3.87 28.53-14.52 39.36a62.24 62.24 0 0 1 -19.13 12.74c-2.57 1.21-6.2.64-10.12.94zm88.27 8.51c4.84-.92 6.11 2.25 7.08 4.7 1.73 4.37 4.87 7.47 8.06 10.54 7 6.68 13.17 7.72 21.79 3.54 18.16-8.82 34-20.31 46.1-37 8.11-11.2 6.7-24.4.85-33.84-8.86-14.3-20.86-25.16-35-34-8.25-5.18-15.66-3.28-20.13 5.52-4.38 8.62-6.41 18.07-9.42 27.18-3.76 11.4-7.46 22.82-11.47 34.13-2.15 6.19-4.93 12.17-7.86 19.23zm-90.09-24.82c3.88-1 7-1.53 9.91-2.62 10.27-3.84 16-12.51 21.7-21.07 3.58-5.35 4.21-11.47 3.54-17.67-.85-7.89-5.08-9.66-11.4-5a14.52 14.52 0 0 0 -1.8 1.71c-6.52 7-12.7 14.22-16.34 23.13-2.69 6.67-5.83 13.31-5.61 21.52zm89.15-20.65c11.63-22.36 14.56-46.55 14.7-71.31-3.61 24.03-10.24 47.42-14.7 71.31zm-191.9 41.23c11.26 12.82 25 19.22 41.91 19.29 9.83 0 16.06-4.84 20.26-13.42 5.36-10.95 5.54-22.49 3.85-34-2.09-14.3-7.3-27.82-11.85-41.51-3.39-10.2-8.25-19.78-11.87-29.88-3-8.41-9.75-14-17.42-18.29-5.48-3.06-13.22-.4-13.84 5-.53 4.52-.77 9.35 2.06 13.46 1 1.38 1.16 4 3.6 3.52 2.13-.39 2.94-2.2 3.59-4.3 1.39-4.54 3.38-5.11 7.43-2.79 4.22 2.4 6.25 6.41 7.76 10.66 6.17 17.49 13.26 34.69 17.66 52.76 3 12.26 4.29 24.47-1.86 36.44-3.38 6.59-7.45 9.76-14.89 9.36-23.13-1.24-34.31-13.67-39.06-34.4-1.44-6.3-2.37-12.74-5.23-18.58-1.37-2.78-3.84-4.74-7.28-4-3.12.64-2.53 3.62-2.78 5.7-.65 5.26-1 10.48-2.69 15.64a81.11 81.11 0 0 1 -15.64 27c-6.08 7.1-12.46 13.92-21 18.08-6.46 3.13-13 4.11-19.39-.3a31.1 31.1 0 0 1 -9.92-10.36c-8-14.34-9.73-30.12-8.2-45.89a186.39 186.39 0 0 1 7-37.13c2.78-9 3.63-18.47 8.55-26.87 2.86-4.87.37-13.68-3.66-17.47a6.08 6.08 0 0 0 -9.82 2.28c-4.59 11.29-6.41 23.32-8.57 35.1s-5.49 23.11-5.23 35.31c.22 10.29-.5 20.51 1.5 30.76 3.28 16.79 10.11 31.46 23.31 42.79 9.21 7.91 20.89 9.15 31.47 3.14 12.65-7.18 21.54-18.19 30-29.59a77.34 77.34 0 0 0 8.57-15.42c5.35 5.54 7 12.54 11.68 17.91zm-1155.94-112.59c10.11.82 18 2.83 23.93 9.52 1.88 2.12 4.3 2.35 6.84 2.11 12.12-1.15 22 4.16 31.35 10.89 2.1 1.51 5 2 6.94 3.61 14.61 11.93 25.17 26.51 25.93 46 .36 9.14-3.57 17.7-9.63 24.77-8.82 10.29-17.63 20.52-29.5 27.73-13.14 8-26.6 14.36-42.07 16.7-9.18 1.36-18.18 3.63-27.38 1.54-22.88-5.22-36.1-14.67-40.57-39.64-2.68-15-.66-29.92 2.87-44.71a112.75 112.75 0 0 1 13.83-34.1c6.6-10.51 14.72-19.49 27.34-22.92 3.83-1.04 7.73-1.91 10.12-1.5zm-33.78 63.93c-1.95-1.53-2.14-3.31-2.15-5.66 0-11.08 8.23-17.6 14.81-23.91a109.14 109.14 0 0 1 18.31-14c4-2.52 8.08-3.93 11.18-7-13.06-2.7-26.21 3.23-34.43 15.34-15.33 22.63-21.75 47.64-19.98 74.79.9 13.75 9.13 23.84 22.42 27.29 25.29 6.57 47.91-1.41 69.28-14 10.82-6.35 20-15 28.11-24.65 5.53-6.64 10.58-13.66 11.66-22.59 2.52-20.8-23.43-44.43-40-45.77-5.32-.43-10.56-2.54-16.46-1.31 1.47 6.42-1.63 11.33-3.79 16.47-.61 1.45-1 3.52-3.27 3a5 5 0 0 1 -3.87-3.53 9.32 9.32 0 0 1 .66-7.24c1.11-2.09 2.61-4.18 2.19-7.36-25.28 4-41.22 20-54.67 40.13zm445.06 117.66h-.15.15c-1.08-28.46-3.7-38.72-10.33-66.85-3.17-13.44-8.69-26.32-13.17-39.46-1.78-5.2-3.17-10-9.89-11.65-2.61 2-4.22 4.27-3.86 8.39a23.08 23.08 0 0 1 -6 17.9c-4.25 4.8-8.73 9.35-14.39 12.48-10.81 6-22.44 7.47-34.93 1.37-6.61-3.23-9-9.25-6.68-15.58a72.75 72.75 0 0 0 2.82-8.24c2.22-9.54-1.83-18.25-10.76-22.74a25.56 25.56 0 0 0 -15.71-2.07 59.47 59.47 0 0 0 -24.85 10.34c-6.62 4.57-13.08 9.3-18.72 15.28a20.66 20.66 0 0 1 -1.68-2.12c-8.4-14.61-21.54-20.93-37-23.11q-22.81-3.23-40.15 9.8c-4.91 3.69-9.23 7.57-12.68 13-3.88 6.07-8.82 11.55-12.59 18.21-1.41-3-.9-5.31-.56-7.52.84-5.54-1.59-10.05-5.12-14.45a5.76 5.76 0 0 0 -6.37-2.22c-2.43.66-1.77 3.09-1.53 5.06.47 3.67.94 7.34 1.54 11a61 61 0 0 1 .73 8.75 125.54 125.54 0 0 1 -1 13.66c-.22 2.11-.41 4-.57 5.66-.3 2.27-.61 4.53-.87 6.8-.48 4.1-.22 7.91 1.69 11.57a8.8 8.8 0 0 0 2.7 3.89 5.28 5.28 0 0 0 3.11 1.82c.93.36 1.62.51 1.76.57 2.65-.18 4.14-.34 3.7-4.15a4.43 4.43 0 0 0 0-.72c.75-6.36 1.54-9.13 4.37-15.57 2.31-5.23 6.09-13.48 9.53-19.72 5.77-10.29 12.71-19.57 23.54-25.45 12.61-6.84 26.09-9.25 41.19-3.85 13.79 4.94 17.6 11 15.29 24.64a99.91 99.91 0 0 0 -1.38 13.2c-.14 4.4-1.49 8.83.41 13.27 1.56 3.64 3.93 7.77 8.3 7.36 4.13-.39 4.07-4.34 3.72-8.1a37.56 37.56 0 0 1 3.27-20c6.8-14.27 19-22.77 32.78-29.4a26.06 26.06 0 0 1 16.9-2.44c4.34.9 5.52 2.87 3.35 6.29a18.65 18.65 0 0 0 -2.21 16.26c3.31 11.29 8.48 21.37 20.15 26.29 10.89 4.58 22 4.86 32.27.74 12.94-5.2 22.52-14.54 30.68-25.46a14.75 14.75 0 0 1 2.61 5.52c4.31 14.41 8.39 28.87 11.28 43.51 3.59 18.22 3.31 18.5 3.28 36.81a74.12 74.12 0 0 1 -1.24 13.43c-1.95 8.94-6.54 18-11.49 22.7-3.35 3.18-15.48 10.89-16.91 10.75-.27 0-4.29 1.33-8.91 3-11.24 4.09-19.27 6-29.68 7.09l-12.15 1.27c-4.46.47-10.16.83-12.66.81s-6.16.08-8.1.22c-8.2.59-27-2.38-37.48-5.92-4.15-1.41-5.54-1.53-6.07-.52 1.08 2 1.49 2.21 4.43 4.92 3.42 2.55 2.47 2.58 6.87 5.13a11 11 0 0 0 2.88.91 3 3 0 0 0 1.21.22 50.67 50.67 0 0 1 6 1.48c6.1.63 11.28 1.41 17.12 2.5 5.48.43 1.53.53 6.28.69a47.12 47.12 0 0 0 9 .52 17.88 17.88 0 0 0 6.5.17c4.91-.84 8.76.92 15-.52 9.21-.34 17.16-.65 22.32-3a80.35 80.35 0 0 1 9.22-2.22c7.12-1 11.47-3.82 18.3-6.28 0 .4 7.63-3.07 10.06-4.73 8.85-6.05 15.23-15.07 19.32-27.32 1.45-4.27 2.3-13.67 2.21-23.87zm269.84-49a58.72 58.72 0 0 1 -14-13.16 47.76 47.76 0 0 1 -5.79-11.69c-4.14-12.26-7.07-24.86-10.25-37.38-1.89-7.48-5.28-13.78-11.68-18.53-3.22-2.39-6.51-2.23-8.55-.11-3.53 3.66-7.59 6.86-10.25 11.47-7.93 13.76-14.17 28.5-23.65 41.35-3.77 5.12-6.16 11.28-11.81 16.34-2.23-10.76-1.43-20.71-1.76-30.57-.22-6.61.48-13.26.15-19.87-.45-8.93-8.1-15.19-15-12.33-5.86 2.44-12.13 3.54-17.93 6-4.33 1.82-6.9.2-9.85-3-3.65-3.91-6.08-8.76-9.8-12.44-10.34-10.19-23.43-12.38-37.34-10.42-4.6.64-8 3.91-9.78 8.4q-1.5 3.69-3 7.41c-7.36 18.75-12.46 37.9-8.89 58.26 1.42 8.09 4.78 15.34 11.08 21.11 19 17.4 58 11.94 71.19-10.59 4.82-8.26 7.68-17.24 5.71-27.07-1.39-7-3.26-13.86-7.19-20 5-2.76 9.92-3.26 15-4.66 1.23 5.12.87 10.09 1.16 15 .65 11.08-1 22.34 2.72 33.19 2.55 7.52 6.92 13 14.83 15.33 5.79 1.69 12.37-.12 14.87-4.95 7.3-14.09 14.35-28.39 21.63-42.52 3.66-7.12 7.48-14.18 13-20.43a28.87 28.87 0 0 1 3.54 8.69c3.44 12.83 5.94 26.1 12.37 37.79q1.39 2.53 2.87 5c.88 1.41 2.41 4.09 3.4 5.46 2 2.85 10.76 12.2 14.2 13.92a11.71 11.71 0 0 0 10.55 3.53 6.64 6.64 0 0 0 4-1.71c1.62-1.61 1.33-1.95-5.75-6.75zm-182.51-78.36c6.84-6.23 13-6.9 20.79-2 6.17 3.89 11.3 9 16.49 15-12.32 2.07-23.84 3.8-35.25-1.2-6.11-2.64-6.98-7.25-2.03-11.8zm29.58 74.78c-11.28 5-23.05 6.25-34.67.52a15.38 15.38 0 0 1 -8.18-9.66c-4.55-16.48-1.46-32.4 4.1-48.76 10.72 8.57 22.22 9.75 34.24 8.61q8.45-.8 16.86-1.82c2.36-.29 3.36.75 4.56 2.77 12.29 20.67.25 40.76-16.88 48.34zm252.22 19.1a12.77 12.77 0 0 1 -4.37-5.24c-.68-1.77-1.81-4.57-2.52-6.22a105 105 0 0 1 -6-21.56c-1.05-8.35-1.45-8.55-6.93-3.45-2.66 2.48-5.42 4.51-6.12 4.51-2.76 2.18-5.4 2.43-9.22 2.5-7 0-7.14 0-10.66-4-4.27-4.8-4.91-9.46-1.31-9.56 9-.26 13.14-2.3 23.69-11.75l6.73-6-.33-6.84c-.8-16.5-.26-39.87 1.17-50.8.86-6.51 1.75-12.14 2-12.52a38.58 38.58 0 0 0 1-6.6c.7-7.35 2.41-20.6 3.35-25.91.85-4.82 3.48-5.65 9.17-2.88 6.41 3.12 8 10.64 4.87 23.38-1 4.13-2.09 9.53-2.4 12s-1.18 8.1-1.93 12.5c-2.47 14.53-4.3 40.5-2.86 40.5 9.94-8 18.72-18.19 26.4-28.5a54.45 54.45 0 0 1 6.93-10.5 44.46 44.46 0 0 1 2.81-3.5c.87 0 3.74-5.37 8.52-15 2.75-5.53 3.83-9.73 7-27.39.66-3.66 1.82-6.82 2.72-7.38 2.13-1.35 9 3.06 11.79 7.55l2.1 3.4-1.9 10.12c-1.06 5.57-2.22 12-2.56 14.39a34.18 34.18 0 0 1 -.94 4.77 80.61 80.61 0 0 0 -1 8.52 77.12 77.12 0 0 1 -1 8.51c-.17.28-.63 7.26-1 15.5s-.85 15.25-1 15.56a79.91 79.91 0 0 0 -.45 9.5c-.08 4.91-.75 15.46-1.49 23.43-1.36 14.5-1.5 22-.42 22 1.62 0 6.21-6.53 28.31-40.25 6.95-10.59 8.49-11.63 13.48-9.09a19 19 0 0 1 4.85 3.34c1.91 2.35 5.16 9.54 5.73 12.67 2.26 12.53 4.56 21.58 6.08 24 3.75 5.86 18.08 1.94 29.16-8 3.11-2.78 3.17-3 2.64-9.5-.82-10.11 2.06-26.46 4.94-33.44 1.25-3.25 2-4.44 3.08-6.76a22.1 22.1 0 0 1 3.09-6.53 41 41 0 0 0 3.58-6.2c.91-1.78 1.08-1.53 2.87-4.25a19.17 19.17 0 0 1 5.65-5.5c3.6-3.09 6.81-3.17 11.07-.25 5.19 3.56 7.53 9.15 7.25 17.34-.36 2.8-.74 4.66-1.12 9.08a49.85 49.85 0 0 0 -1.17 6.39c-.83 6.45-8 23.14-10.61 25.94-2.94 4-4.87 8.65-8.53 12.21q-7.68 6.48 4.85 13.15c5.12 2.73 8.47 3.37 21.67 4.17 11.68.71 11.64.7 11.51 2.48-.32 4.34-4.8 8.69-11.58 9.09-7.35.58-12.34.4-18.93-1.36a48.79 48.79 0 0 1 -15.86-9.63l-4.35-4-5.77 3.94c-3.17 2.17-6.25 3.94-6.85 3.94-5 3.83-11.13 4.64-17.47 5-11.93-.06-22.69-11.16-26.81-27.66-1.06-4.22-2-7.8-2.18-7.94-.32-.32-12.06 17.4-16.21 24.47-1.65 2.81-3.34 5.32-3.75 5.33a65.33 65.33 0 0 1 -8 11 23 23 0 0 0 -3.17 4.56 11.34 11.34 0 0 1 -4 4.18c-5.7 3.05-14.76-5.2-17.74-16.16-1-3.82-.79-21.54.48-33.75.2-1.92.65-9.8 1-17.5s.87-18.16 1.16-23.25.16-9.23-.28-9.21-2.2 1.93-3.93 4.25c-11.44 15.3-18.14 23.75-21.73 27.41l-11.51 11.73-7.42 7.56 1.23 9.24c.68 5.08 1.46 11 1.75 13.24a85.52 85.52 0 0 0 6.35 23.12c3.61 8 3.69 9 .77 9.75-3.35.92-3.97.8-7.39-1.39zm162.81-67.21c4.51-7.16 8.66-13.77 8.91-17 1.54-3.83 1.76-7.52 2.46-12.23.48-3.46.37-4.69-.35-4-1.72 1.64-8.59 13.58-8.59 15.1-2.05 3.9-1.74 4.11-2.52 6.74-1.59 3.74-2.13 5.74-3.67 13.41-.67 3.46.85 2.67 3.79-2.02z" fill="currentColor"/></svg>
